<svg width="1200" height="400" viewBox="0 0 1200 400" xmlns="http://www.w3.org/2000/svg">
  <defs>
    <linearGradient id="cvBg" x1="0%" y1="0%" x2="100%" y2="100%">
      <stop offset="0%" stop-color="#8c3410"/>
      <stop offset="45%" stop-color="#c25e2a"/>
      <stop offset="100%" stop-color="#e8903a"/>
    </linearGradient>
    <linearGradient id="cvShine" x1="0%" y1="0%" x2="0%" y2="100%">
      <stop offset="0%" stop-color="rgba(255,200,140,0.18)"/>
      <stop offset="100%" stop-color="rgba(255,120,40,0.04)"/>
    </linearGradient>
    <radialGradient id="cvGlow1" cx="20%" cy="60%" r="40%">
      <stop offset="0%" stop-color="rgba(240,140,60,0.35)"/>
      <stop offset="100%" stop-color="rgba(240,140,60,0)"/>
    </radialGradient>
    <radialGradient id="cvGlow2" cx="85%" cy="30%" r="35%">
      <stop offset="0%" stop-color="rgba(255,180,80,0.25)"/>
      <stop offset="100%" stop-color="rgba(255,180,80,0)"/>
    </radialGradient>
  </defs>

  <rect width="1200" height="400" fill="url(#cvBg)"/>
  <rect width="1200" height="400" fill="url(#cvShine)"/>
  <rect width="1200" height="400" fill="url(#cvGlow1)"/>
  <rect width="1200" height="400" fill="url(#cvGlow2)"/>

  <polygon points="0,400 260,0 320,0 60,400" fill="rgba(255,255,255,0.04)"/>
  <polygon points="160,400 420,0 480,0 220,400" fill="rgba(255,255,255,0.03)"/>
  <polygon points="900,0 1200,200 1200,0" fill="rgba(255,255,255,0.04)"/>
  <polygon points="980,400 1200,120 1200,400" fill="rgba(0,0,0,0.08)"/>

  <circle cx="600" cy="-80" r="280" fill="none" stroke="rgba(255,200,120,0.1)" stroke-width="1.5"/>
  <circle cx="600" cy="-80" r="380" fill="none" stroke="rgba(255,200,120,0.07)" stroke-width="1"/>
  <circle cx="600" cy="-80" r="480" fill="none" stroke="rgba(255,200,120,0.05)" stroke-width="1"/>

  <line x1="0" y1="0" x2="1200" y2="400" stroke="rgba(255,255,255,0.04)" stroke-width="1"/>
  <line x1="0" y1="400" x2="1200" y2="0" stroke="rgba(255,255,255,0.04)" stroke-width="1"/>

  <circle cx="950" cy="80" r="120" fill="none" stroke="rgba(255,200,100,0.1)" stroke-width="60"/>
  <circle cx="200" cy="340" r="90" fill="none" stroke="rgba(255,180,80,0.08)" stroke-width="50"/>

  <text x="600" y="222" font-family="Georgia, serif" font-size="22" font-weight="400" letter-spacing="12" text-anchor="middle" fill="rgba(255,240,220,0.35)" font-style="italic">your cover photo</text>
</svg>
